<svg width="388" height="62" viewBox="0 0 388 62" fill="none" xmlns="http://www.w3.org/2000/svg">
<rect x="4.5" y="4.5" width="379" height="53" rx="9.5" fill="white"/>
<path d="M129.613 22.8277C130.078 22.3049 130.432 21.6976 130.655 21.0407C130.878 20.3839 130.967 19.6903 130.915 19C129.49 19.1124 128.166 19.7674 127.231 20.8239C126.782 21.3302 126.443 21.9193 126.232 22.5561C126.021 23.193 125.943 23.8648 126.002 24.5316C126.698 24.5373 127.385 24.3866 128.011 24.0911C128.637 23.7956 129.185 23.3634 129.613 22.8277ZM132.708 31.7552C132.717 30.8357 132.965 29.9335 133.429 29.1336C133.893 28.3337 134.558 27.6625 135.361 27.1835C134.854 26.4698 134.184 25.8813 133.404 25.4648C132.624 25.0482 131.755 24.815 130.866 24.7836C128.95 24.5916 127.181 25.8755 126.162 25.8755C125.143 25.8755 123.706 24.8076 122.109 24.8316C121.065 24.8652 120.048 25.1625 119.157 25.6946C118.266 26.2266 117.531 26.9752 117.024 27.8674C114.862 31.5392 116.471 36.9988 118.633 39.9626C119.616 41.4145 120.844 43.0584 122.465 42.9984C124.086 42.9384 124.614 42.0145 126.494 42.0145C128.373 42.0145 128.95 42.9984 130.547 42.9624C132.143 42.9264 133.273 41.4745 134.305 40.0226C135.036 38.9685 135.607 37.8167 136 36.6028C135.027 36.1973 134.196 35.522 133.611 34.6605C133.026 33.799 132.712 32.789 132.708 31.7552Z" fill="black"/>
<path d="M150.391 38H148.334L152.904 25.2734H155.137L159.725 38H157.668L156.508 34.6426H151.551L150.391 38ZM152.104 33.0254H155.945L154.064 27.5938H153.977L152.104 33.0254ZM161.184 41.5859V28.4551H163.012V30.002H163.17C163.504 29.4043 164.146 28.332 165.912 28.332C168.224 28.332 169.92 30.1426 169.92 33.2539C169.92 36.3301 168.241 38.1846 165.93 38.1934C164.198 38.1846 163.513 37.1299 163.17 36.5059H163.064V41.5859H161.184ZM163.029 33.2188C163.029 35.2227 163.908 36.585 165.508 36.5938C167.16 36.585 168.021 35.1348 168.021 33.2188C168.021 31.3379 167.187 29.9229 165.508 29.9316C163.891 29.9229 163.029 31.2324 163.029 33.2188ZM171.783 41.5859V28.4551H173.611V30.002H173.77C174.104 29.4043 174.745 28.332 176.512 28.332C178.823 28.332 180.52 30.1426 180.52 33.2539C180.52 36.3301 178.841 38.1846 176.529 38.1934C174.798 38.1846 174.112 37.1299 173.77 36.5059H173.664V41.5859H171.783ZM173.629 33.2188C173.629 35.2227 174.508 36.585 176.107 36.5938C177.76 36.585 178.621 35.1348 178.621 33.2188C178.621 31.3379 177.786 29.9229 176.107 29.9316C174.49 29.9229 173.629 31.2324 173.629 33.2188ZM184.264 25.2734V38H182.383V25.2734H184.264ZM190.662 38.1934C187.85 38.1934 186.118 36.251 186.127 33.2891C186.118 30.3535 187.876 28.332 190.539 28.332C192.71 28.332 194.775 29.6768 194.775 33.1309V33.7988H187.99C188.043 35.6182 189.115 36.6465 190.68 36.6465C191.743 36.6465 192.438 36.1895 192.754 35.6094H194.652C194.23 37.1562 192.763 38.1934 190.662 38.1934ZM187.999 32.3926H192.93C192.93 30.9424 191.989 29.8701 190.557 29.8789C189.054 29.8701 188.078 31.0479 187.999 32.3926ZM210.49 36.207V37.6133H196.076V36.207H202.422V33.4473H197.834V28.4375H207.08V26.2227H197.799V24.8516H208.732V29.7734H199.486V32.0762H209.102V33.4473H204.074V36.207H210.49ZM221.811 27.752C221.793 30.626 223.533 33.5264 225.977 34.6074L224.975 35.9258C223.164 35.0645 221.731 33.2979 220.993 31.1445C220.264 33.4561 218.813 35.3545 216.924 36.2773L215.904 34.8711C218.383 33.7725 220.123 30.7578 220.123 27.752V25.0625H221.811V27.752ZM227.4 39.5293V23.7441H229.07V39.5293H227.4ZM237.086 26.5742C237.077 28.5869 238.475 30.4941 240.883 31.3027L240.039 32.6035C238.255 31.9883 236.945 30.7578 236.26 29.2109C235.574 30.9072 234.203 32.252 232.357 32.9023L231.461 31.6016C233.922 30.7666 235.407 28.7275 235.416 26.5566V26.1348H231.953V24.7812H240.479V26.1348H237.086V26.5742ZM233.553 35.3633V34.0098H243.959V39.4941H242.289V35.3633H233.553ZM242.289 33.2363V23.7441H243.959V27.7871H246.244V29.1934H243.959V33.2363H242.289ZM259.41 23.7441V30.125H261.941V31.5137H259.41V39.4941H257.758V23.7441H259.41ZM247.053 27.5762V26.2051H250.938V23.9551H252.607V26.2051H256.387V27.5762H247.053ZM247.861 32.3926C247.861 30.248 249.514 28.7363 251.781 28.7363C254.04 28.7363 255.692 30.248 255.701 32.3926C255.692 34.5547 254.04 36.0576 251.781 36.0664C249.514 36.0576 247.861 34.5547 247.861 32.3926ZM249.461 32.3926C249.452 33.7637 250.437 34.6777 251.781 34.6602C253.117 34.6777 254.093 33.7637 254.102 32.3926C254.093 31.0479 253.117 30.1162 251.781 30.1074C250.437 30.1162 249.452 31.0479 249.461 32.3926ZM275.793 23.7441V39.4941H274.105V23.7441H275.793ZM262.855 35.2754C267.039 33.2803 269.087 30.4414 269.412 26.7676H263.611V25.4316H271.1C271.1 30.0459 269.14 34.0361 263.734 36.6289L262.855 35.2754Z" fill="#090909"/>
<rect x="4.5" y="4.5" width="379" height="53" rx="9.5" stroke="#090909"/>
</svg>
