<svg width="12" height="27" viewBox="0 0 12 27" fill="none" xmlns="http://www.w3.org/2000/svg">
<g id="Group">
<path id="Vector" d="M11.4609 17.4786C11.4609 17.2192 11.3438 16.9806 11.1211 16.7939L1.83984 8.74384C1.62891 8.56749 1.37109 8.47412 1.06641 8.47412C0.46875 8.47412 0 8.8787 0 9.41814C0 9.67749 0.117188 9.91608 0.304688 10.0924L8.83594 17.4786L0.304688 24.8647C0.117188 25.041 0 25.2693 0 25.539C0 26.0784 0.46875 26.4831 1.06641 26.4831C1.37109 26.4831 1.62891 26.3897 1.83984 26.2029L11.1211 18.1632C11.3438 17.9662 11.4609 17.7379 11.4609 17.4786Z" fill="#B1B1B1"/>
</g>
</svg>
