<svg width="389" height="62" viewBox="0 0 389 62" fill="none" xmlns="http://www.w3.org/2000/svg">
<rect x="4" y="4" width="380.497" height="54" rx="10" fill="#FEE500"/>
<path d="M124.24 20.6025C118.018 20.6025 113 24.617 113 29.4905C113 32.6539 115.088 35.4239 118.219 37.0056L117.159 40.9639C117.139 41.0232 117.136 41.0869 117.15 41.1479C117.164 41.2088 117.195 41.2647 117.239 41.3091C117.304 41.3658 117.386 41.3972 117.472 41.3974C117.543 41.3917 117.611 41.3636 117.665 41.3171L122.225 38.2421C122.898 38.335 123.577 38.3832 124.257 38.3865C130.471 38.3865 135.497 34.3721 135.497 29.4905C135.497 24.6089 130.455 20.6025 124.24 20.6025Z" fill="#392020"/>
<path d="M155.345 25.3438C155.327 29.9932 153.903 34.1152 148.155 36.9453L147.241 35.6973C150.089 34.2998 151.785 32.6035 152.717 30.6084L147.575 31.0918L147.329 29.6504L153.235 29.2549C153.473 28.4463 153.604 27.5938 153.666 26.6973H148.155V25.3438H155.345ZM157.753 39.4766V23.7441H159.423V30.0371H161.866V31.4082H159.423V39.4766H157.753ZM170.901 25.3438C170.884 29.9932 169.46 34.1152 163.712 36.9453L162.798 35.6973C165.645 34.2998 167.342 32.6035 168.273 30.6084L163.132 31.0918L162.886 29.6504L168.792 29.2549C169.029 28.4463 169.161 27.5938 169.223 26.6973H163.712V25.3438H170.901ZM173.31 39.4766V23.7441H174.979V30.0371H177.423V31.4082H174.979V39.4766H173.31ZM185.438 24.6934C188.805 24.7021 191.257 26.3633 191.257 28.877C191.257 31.2324 189.2 32.8057 186.265 33.043V36.1367H192.681V37.5254H178.267V36.1367H184.612V33.043C181.694 32.8057 179.629 31.2324 179.638 28.877C179.629 26.3633 182.09 24.7021 185.438 24.6934ZM181.255 28.877C181.255 30.6436 183.013 31.7422 185.438 31.7598C187.882 31.7422 189.631 30.6436 189.64 28.877C189.631 27.1719 187.882 26.0469 185.438 26.0645C183.013 26.0469 181.255 27.1719 181.255 28.877ZM208.237 36.207V37.6133H193.823V36.207H200.169V33.4473H195.581V28.4375H204.827V26.2227H195.546V24.8516H206.479V29.7734H197.233V32.0762H206.849V33.4473H201.821V36.207H208.237ZM219.558 27.752C219.54 30.626 221.28 33.5264 223.724 34.6074L222.722 35.9258C220.911 35.0645 219.479 33.2979 218.74 31.1445C218.011 33.4561 216.561 35.3545 214.671 36.2773L213.651 34.8711C216.13 33.7725 217.87 30.7578 217.87 27.752V25.0625H219.558V27.752ZM225.147 39.5293V23.7441H226.817V39.5293H225.147ZM234.833 26.5742C234.824 28.5869 236.222 30.4941 238.63 31.3027L237.786 32.6035C236.002 31.9883 234.692 30.7578 234.007 29.2109C233.321 30.9072 231.95 32.252 230.104 32.9023L229.208 31.6016C231.669 30.7666 233.154 28.7275 233.163 26.5566V26.1348H229.7V24.7812H238.226V26.1348H234.833V26.5742ZM231.3 35.3633V34.0098H241.706V39.4941H240.036V35.3633H231.3ZM240.036 33.2363V23.7441H241.706V27.7871H243.991V29.1934H241.706V33.2363H240.036ZM257.157 23.7441V30.125H259.688V31.5137H257.157V39.4941H255.505V23.7441H257.157ZM244.8 27.5762V26.2051H248.685V23.9551H250.354V26.2051H254.134V27.5762H244.8ZM245.608 32.3926C245.608 30.248 247.261 28.7363 249.528 28.7363C251.787 28.7363 253.439 30.248 253.448 32.3926C253.439 34.5547 251.787 36.0576 249.528 36.0664C247.261 36.0576 245.608 34.5547 245.608 32.3926ZM247.208 32.3926C247.199 33.7637 248.184 34.6777 249.528 34.6602C250.864 34.6777 251.84 33.7637 251.849 32.3926C251.84 31.0479 250.864 30.1162 249.528 30.1074C248.184 30.1162 247.199 31.0479 247.208 32.3926ZM273.54 23.7441V39.4941H271.853V23.7441H273.54ZM260.603 35.2754C264.786 33.2803 266.834 30.4414 267.159 26.7676H261.358V25.4316H268.847C268.847 30.0459 266.887 34.0361 261.481 36.6289L260.603 35.2754Z" fill="black"/>
</svg>
