<svg width="238" height="55" viewBox="0 0 238 55" fill="none" xmlns="http://www.w3.org/2000/svg">
<path d="M3.6246 41.195V5.775H12.3696L21.9946 25.41L31.5646 5.775H40.2546V41.195H31.3996V20.845L24.4146 35.145H19.5196L12.4796 20.845V41.195H3.6246Z" fill="#36AE78"/>
<path d="M51.6628 50.875C50.3428 50.875 49.2061 50.8017 48.2528 50.655C47.3361 50.545 46.4195 50.3067 45.5028 49.94V43.78C46.1261 44 46.6945 44.1467 47.2078 44.22C47.7578 44.2933 48.3078 44.33 48.8578 44.33C50.3611 44.33 51.4795 44.055 52.2128 43.505C52.9828 42.9917 53.7528 42.0567 54.5228 40.7L42.8078 15.125H52.1028L58.9778 31.68L65.7428 15.125H74.9828L65.0278 39.05C64.0378 41.4333 62.9378 43.505 61.7278 45.265C60.5178 47.0617 59.1061 48.4367 57.4928 49.39C55.8795 50.38 53.9361 50.875 51.6628 50.875Z" fill="#36AE78"/>
<path d="M108.137 41.745C101.94 41.745 97.21 40.1683 93.9466 37.015C90.72 33.825 89.1066 29.4067 89.1066 23.76C89.1066 17.8567 90.6833 13.2917 93.8366 10.065C97.0266 6.83833 101.775 5.225 108.082 5.225C110.245 5.225 112.17 5.39 113.857 5.72C115.58 6.05 117.23 6.49 118.807 7.04V14.795C115.617 13.475 112.262 12.815 108.742 12.815C105.075 12.815 102.38 13.695 100.657 15.455C98.97 17.215 98.1266 19.9833 98.1266 23.76C98.1266 27.3533 99.025 29.9933 100.822 31.68C102.618 33.3667 105.295 34.21 108.852 34.21C110.575 34.21 112.28 34.0633 113.967 33.77C115.653 33.44 117.285 32.945 118.862 32.285V40.095C117.322 40.6083 115.69 41.0117 113.967 41.305C112.243 41.5983 110.3 41.745 108.137 41.745Z" fill="#36AE78"/>
<path d="M123.346 41.195V4.125H132.201V17.05C133.191 16.3167 134.42 15.73 135.886 15.29C137.353 14.8133 138.93 14.575 140.616 14.575C144.1 14.575 146.648 15.4 148.261 17.05C149.911 18.7 150.736 21.23 150.736 24.64V41.195H141.881V25.245C141.881 23.7417 141.57 22.6783 140.946 22.055C140.323 21.4317 139.205 21.12 137.591 21.12C136.638 21.12 135.666 21.34 134.676 21.78C133.686 22.22 132.861 22.77 132.201 23.43V41.195H123.346Z" fill="#36AE78"/>
<path d="M169.319 41.745C164.296 41.745 160.592 40.59 158.209 38.28C155.826 35.9333 154.634 32.56 154.634 28.16C154.634 23.7967 155.826 20.4417 158.209 18.095C160.629 15.7483 164.332 14.575 169.319 14.575C174.342 14.575 178.046 15.7483 180.429 18.095C182.849 20.4417 184.059 23.7967 184.059 28.16C184.059 32.56 182.867 35.9333 180.484 38.28C178.101 40.59 174.379 41.745 169.319 41.745ZM169.319 34.815C171.372 34.815 172.839 34.3017 173.719 33.275C174.599 32.2483 175.039 30.5433 175.039 28.16C175.039 25.7767 174.599 24.0717 173.719 23.045C172.839 22.0183 171.372 21.505 169.319 21.505C167.302 21.505 165.854 22.0183 164.974 23.045C164.094 24.0717 163.654 25.7767 163.654 28.16C163.654 30.5433 164.094 32.2483 164.974 33.275C165.854 34.3017 167.302 34.815 169.319 34.815Z" fill="#36AE78"/>
<path d="M188.551 41.195V15.125H196.966L197.241 17.545C198.378 16.8483 199.79 16.225 201.476 15.675C203.163 15.0883 204.85 14.7217 206.536 14.575V21.23C205.583 21.34 204.52 21.5233 203.346 21.78C202.21 22 201.11 22.275 200.046 22.605C199.02 22.935 198.14 23.2833 197.406 23.65V41.195H188.551Z" fill="#36AE78"/>
<path d="M222.77 41.745C218.224 41.745 214.575 40.6267 211.825 38.39C209.075 36.1167 207.7 32.7067 207.7 28.16C207.7 24.0167 208.837 20.7167 211.11 18.26C213.384 15.8033 216.794 14.575 221.34 14.575C225.484 14.575 228.692 15.6383 230.965 17.765C233.239 19.8917 234.375 22.7517 234.375 26.345V31.02H215.895C216.299 32.7433 217.234 33.9533 218.7 34.65C220.204 35.31 222.239 35.64 224.805 35.64C226.235 35.64 227.684 35.5117 229.15 35.255C230.654 34.9983 231.9 34.6683 232.89 34.265V40.04C231.644 40.6267 230.159 41.0483 228.435 41.305C226.712 41.5983 224.824 41.745 222.77 41.745ZM215.895 25.905H226.675V24.75C226.675 23.4667 226.29 22.4583 225.52 21.725C224.75 20.955 223.449 20.57 221.615 20.57C219.489 20.57 218.004 21.01 217.16 21.89C216.317 22.7333 215.895 24.0717 215.895 25.905Z" fill="#36AE78"/>
</svg>
